<?xml version="1.0" encoding="utf-8"?>
<!-- Generator: Adobe Illustrator 25.4.1, SVG Export Plug-In . SVG Version: 6.00 Build 0)  -->
<svg version="1.1" id="logo_x5F_dan_xA0_Image_00000159448452915436579080000007702572270786221494_"
	 xmlns="http://www.w3.org/2000/svg" xmlns:xlink="http://www.w3.org/1999/xlink" x="0px" y="0px" viewBox="0 0 255 255"
	 style="enable-background:new 0 0 255 255;" xml:space="preserve">
<style type="text/css">
	.st0{fill:#FF0000;}
	.st1{fill:none;stroke:#FF0000;stroke-width:6;stroke-linecap:round;stroke-miterlimit:10;}
</style>
<g>
	<path class="st0" d="M108.4,139c-5.1,1.1-10.4,0.9-15.5-0.3c-5.1-1.3-10-3.8-14.2-7.1c-2.1-1.6-4-3.5-5.9-5.5l-2.5-3.1
		c-0.8-1.1-1.6-2.2-2.3-3.4c-2.8-4.6-4.9-9.5-6.5-14.7c-0.8-2.6-1.3-5.3-1.7-8c-0.4-2.7-0.6-5.5-0.5-8.2c0.1-2.8,0.3-5.6,0.8-8.3
		c0.6-2.7,1.3-5.5,2.3-8.1c2-5.3,5.1-10.2,8.8-14.4c3.7-4.2,7.9-7.9,12.4-11c2.2-1.6,4.5-3,6.9-4.4c1.3-0.7,2.5-1.4,3.8-1.9l1.9-0.9
		l2-0.8c5.2-2,10.7-3.2,16.1-3.9c10.9-1.4,21.9-0.6,32.5,1.8c10.6,2.4,20.8,6.8,30,12.5c4.6,2.9,9,6.1,13.2,9.7
		c4.1,3.6,7.9,7.6,11.4,11.8c0.8,1.1,1.7,2.1,2.5,3.2l2.4,3.3c1.5,2.3,3,4.6,4.2,7c0.7,1.2,1.3,2.3,2,3.6l1.8,3.7
		c0.3,0.6,0.6,1.2,0.9,1.8l0.8,1.9l1.6,3.8c3.8,10.2,6.2,21,6.4,32c0.1,5.5-0.2,10.9-1.1,16.3c-0.9,5.4-2.1,10.7-3.8,15.8
		c-3.5,10.3-8.6,19.9-15.3,28.4c-3.3,4.2-7,8.2-11.1,11.8c-4,3.6-8.4,6.8-13.3,9.5l-1.8,1l-1.9,0.9c-0.6,0.3-1.3,0.6-1.9,0.8
		l-1.9,0.7c-2.5,0.9-5.1,1.9-7.7,2.5c-5.3,1.3-10.5,2.1-15.7,2.4c-1.3,0.1-2.6,0.1-3.9,0.2l-2,0.1l-2,0c-1.3,0-2.6,0-3.9-0.1
		l-3.9-0.2c-1.3,0-2.6-0.2-3.9-0.3c-1.3-0.1-2.6-0.2-3.9-0.4c-2.6-0.4-5.1-0.7-7.7-1.3c-5.1-1-10.1-2.5-14.9-4.4l-3.6-1.6
		c-0.6-0.2-1.2-0.5-1.7-0.9l-1.7-0.9c-2.3-1.1-4.4-2.7-6.5-4.1c-0.2-0.1-0.2-0.4-0.1-0.6c0.1-0.2,0.3-0.2,0.5-0.1l0,0
		c2.2,1.2,4.3,2.6,6.7,3.5l1.7,0.8c0.6,0.3,1.1,0.5,1.7,0.7l3.6,1.3c4.8,1.5,9.7,2.7,14.7,3.4c10,1.6,20.2,1.7,30.2,0.7
		c5-0.6,10-1.4,14.8-2.8c2.4-0.7,4.8-1.6,7.1-2.6l1.7-0.7c0.6-0.3,1.1-0.6,1.7-0.8l1.7-0.9l1.6-1c8.7-5.1,16-12.3,22-20.4
		c6-8.1,10.6-17.2,13.7-26.8c1.5-4.8,2.6-9.7,3.3-14.7c0.7-5,0.9-10,0.8-15.1c-0.1-5-0.8-10-1.8-15l-0.8-3.7c-0.3-1.2-0.7-2.4-1-3.6
		l-0.5-1.8c-0.2-0.6-0.4-1.2-0.6-1.8l-1.3-3.6l-1.5-3.5l-0.7-1.7c-0.3-0.6-0.6-1.1-0.8-1.7l-1.7-3.4c-0.6-1.1-1.2-2.2-1.9-3.3
		c-2.5-4.4-5.3-8.6-8.5-12.5C182.5,60.2,164.5,49,145,44.2c-9.8-2.4-20-3.2-30-2.2c-5,0.6-9.9,1.6-14.7,3.3L98.6,46l-1.7,0.7
		c-1.2,0.5-2.3,1.1-3.4,1.6c-2.2,1.2-4.4,2.4-6.5,3.8c-4.2,2.8-8.1,6-11.5,9.7c-3.4,3.7-6.2,7.9-8.1,12.5c-1,2.3-1.7,4.7-2.3,7.1
		c-0.5,2.4-0.9,4.9-1,7.4c-0.1,2.5,0,5,0.2,7.5c0.3,2.5,0.7,5,1.3,7.4c1.2,4.9,3.1,9.6,5.5,14c2.4,4.4,5.6,8.4,9.4,11.7
		c3.8,3.3,8.2,5.9,13,7.4c2.4,0.7,4.9,1.2,7.4,1.5c2.5,0.2,5,0.2,7.5-0.2l0,0c0.2,0,0.4,0.1,0.5,0.3
		C108.8,138.8,108.6,139,108.4,139z"/>
</g>
<path class="st1" d="M101.6,73.3c0,0,28.6-9.9,34.2,15.5c4.8,21.8-8.3,51.9-8.4,51.9s-2.2,12.7-2.2,12.7s-1.1,12.1,4.9,18.7
	c6,6.6,17.8,9.5,28.6-0.4"/>
<path class="st1" d="M105.5,109c0,0-25.8,67.1-25.8,67.8"/>
<g>
	<path class="st0" d="M11.3,11.2c19-0.7,38.4-1.3,58-1.9l14.7-0.4l14.8-0.3c9.9-0.2,19.7-0.5,29.7-0.6l29.8-0.5l29.9-0.3
		c10-0.1,20-0.1,30-0.1c10,0,20,0.2,30,0.3l0.1,0c2.2,0,4,1.9,4,4.1l0,0c-0.4,19.2-0.9,38.4-1.4,57.5l-0.7,28.8
		c-0.1,9.6-0.3,19.2-0.4,28.8l-0.1,14.4c0,4.8,0,9.6,0,14.4c0,9.6,0,19.2,0.2,28.8l0.2,14.4l0.3,14.4c0.2,9.6,0.4,19.2,0.6,28.8
		c0,1.5-1.1,2.7-2.6,2.7l-0.1,0c-19.7,0.4-39.4,1-59.1,1.3c-19.7,0.3-39.4,0.5-59.1,0.7l-59.1,0.5C60.9,247,51,247,41.2,247
		c-9.9,0-19.7,0.1-29.6,0l-0.1,0c-2.9,0-5.3-2.4-5.3-5.3c0-9.7,0.1-19.5,0.2-29.2c0.1-9.7,0.2-19.5,0.4-29.2l0.5-29.1l0.6-29
		l0.7-28.8l0.8-28.6C10.1,48.7,10.6,29.8,11.3,11.2z M12,11.9l1.7,58.6l1.5,57.6l0.6,28.5l0.5,28.4c0.2,9.5,0.3,18.9,0.4,28.3
		c0.1,9.4,0.2,18.9,0.2,28.3l-5.3-5.3c9.9-0.1,19.7,0,29.6,0c9.9,0,19.7,0,29.6,0.1l59.1,0.5c19.7,0.2,39.4,0.4,59.1,0.7
		c19.7,0.3,39.4,0.9,59.1,1.3l-2.7,2.7c0.2-9.6,0.5-19.2,0.6-28.8l0.3-14.4l0.2-14.4c0.1-9.6,0.1-19.2,0.2-28.8c0-4.8,0-9.6,0-14.4
		l-0.1-14.4c-0.1-9.6-0.3-19.2-0.4-28.8l-0.7-28.8c-0.5-19.2-1.1-38.4-1.4-57.5l4.1,4.1c-9.7,0.1-19.4,0.3-29.2,0.3
		c-9.7,0.1-19.4,0-29.1-0.1l-29.2-0.3l-29.3-0.5c-9.8-0.1-19.6-0.4-29.4-0.6l-14.8-0.3l-14.9-0.4C52.4,13.3,32.4,12.6,12,11.9z"/>
</g>
</svg>
